<?xml version="1.0" encoding="utf-8"?>
<!-- Generator: Adobe Illustrator 16.0.0, SVG Export Plug-In . SVG Version: 6.00 Build 0)  -->
<!DOCTYPE svg PUBLIC "-//W3C//DTD SVG 1.1//EN" "http://www.w3.org/Graphics/SVG/1.1/DTD/svg11.dtd">
<svg version="1.1" id="Layer_1" xmlns="http://www.w3.org/2000/svg" xmlns:xlink="http://www.w3.org/1999/xlink" x="0px" y="0px"
	 width="236.909px" height="236.91px" viewBox="0 0 236.909 236.91" style="enable-background:new 0 0 236.909 236.91;"
	 xml:space="preserve">
<g>
	<path style="fill:#59C7DA;" d="M116.484,92.743c-28.546,5.545-50.078,25.842-56.635,50.204l86.206-50.242
		C136.663,90.864,126.636,90.771,116.484,92.743z"/>
	<path style="fill:#59C7DA;" d="M116.484,92.743c-28.546,5.545-50.078,25.842-56.635,50.204l86.206-50.242
		C136.663,90.864,126.636,90.771,116.484,92.743z"/>
	<path style="fill:#52B6C3;" d="M188.914,119.61c-7.688-10.863-18.899-19.155-31.954-23.881
		c-14.261,16.75-32.663,29.892-51.363,40.066L188.914,119.61z"/>
	<path style="fill:#59C7DA;" d="M105.597,135.795c18.7-10.174,37.103-23.316,51.363-40.066c-3.514-1.271-7.156-2.29-10.904-3.024
		L59.85,142.946c-0.164,0.607-0.326,1.215-0.471,1.827L105.597,135.795z"/>
</g>
<rect x="112.889" y="86.44" transform="matrix(0.1905 0.9817 -0.9817 0.1905 181.9555 -41.1165)" style="fill:#B0BBB7;" width="6.042" height="6.674"/>
<polygon style="fill:#B0BBB7;" points="126.583,159.019 120.401,143.92 132.012,141.665 131.933,157.98 "/>
<circle style="fill:#FFD44B;" cx="130.88" cy="166.849" r="8.505"/>
<g>
	<path style="fill:#DDF1F6;" d="M189.211,119.609c2.7-0.522,5.337,1.26,5.858,3.96l0.141,0.726c0.521,2.7-1.26,5.336-3.96,5.858
		L61.146,155.314c-2.7,0.522-5.336-1.26-5.858-3.96l-0.141-0.727c-0.522-2.7,1.26-5.336,3.96-5.858L189.211,119.609z"/>
</g>
<path style="fill:#59C7DA;" d="M113.666,29.475l-0.3-1.542c-0.366-1.885-2.736-3.026-5.266-2.534l-9.052,1.758
	c-2.53,0.492-4.3,2.436-3.934,4.321l0.3,1.542L113.666,29.475z"/>
<rect x="93.192" y="36.488" transform="matrix(0.9816 -0.1907 0.1907 0.9816 -5.5253 20.9488)" style="fill:#59C7DA;" width="25.779" height="5.388"/>
<rect x="81.204" y="63.27" transform="matrix(0.9817 -0.1906 0.1906 0.9817 -11.1156 17.6544)" style="fill:#C2C1C3;" width="10.019" height="6.676"/>
<rect x="129.775" y="53.835" transform="matrix(0.9817 -0.1907 0.1907 0.9817 -8.4286 26.749)" style="fill:#C2C1C3;" width="10.018" height="6.676"/>
<g>
	<g>
		<path style="fill:#DDF1F6;" d="M92.14,44.634c-2.699,0.524-4.479,3.162-3.955,5.862l2.996,15.418c0.524,2.7,2.43,3.21,4.234,1.136
			l20.85-23.967c1.805-2.075,1.072-3.343-1.627-2.819L92.14,44.634z"/>
	</g>
	<g>
		<path style="fill:#C9D5D4;" d="M128.548,51.346c-0.524-2.7-1.899-2.867-3.056-0.372l-24.526,30.564
			c-1.918,1.971-1.277,3.155,1.422,2.63l26.446-5.137c2.699-0.524,4.479-3.162,3.954-5.862L128.548,51.346z"/>
	</g>
	<path style="fill:#DDF1F6;" d="M127.595,46.438l-1.626-8.374l-6.423,1.248L92.134,70.823l2.871,14.78l2.475-0.48
		C115.265,73.041,123.656,58.211,127.595,46.438z"/>
</g>
<path style="fill:#FFD44B;" d="M115.721,40.054l0.402,2.07c0.491,2.529-1.176,5.001-3.706,5.493l-9.052,1.758
	c-2.531,0.492-5.002-1.176-5.493-3.706l-0.401-2.07L115.721,40.054z"/>
<path style="fill:#FFD44B;" d="M100.645,84.507l0.3,1.542c0.366,1.886,2.734,3.026,5.265,2.534l18.25-3.545
	c2.53-0.491,4.301-2.435,3.934-4.321l-0.3-1.542L100.645,84.507z"/>
<path style="fill:#5CBAE9;" d="M84.217,82.605c0.525,2.7-1.254,5.337-3.954,5.862L21.547,99.873
	c-2.699,0.524-5.337-1.255-5.862-3.955L9.819,65.72c-0.525-2.7,1.256-5.337,3.954-5.862l58.716-11.406
	c2.7-0.524,5.338,1.256,5.862,3.955L84.217,82.605z"/>
<path style="fill:#5CBAE9;" d="M211.147,57.948c0.525,2.7-1.255,5.337-3.954,5.862l-58.716,11.406
	c-2.7,0.524-5.338-1.255-5.862-3.955l-5.866-30.198c-0.524-2.699,1.255-5.337,3.955-5.861l58.716-11.406
	c2.699-0.524,5.337,1.255,5.862,3.955L211.147,57.948z"/>
<path style="fill:none;stroke:#6B5045;stroke-width:3;stroke-linecap:round;stroke-linejoin:round;stroke-miterlimit:10;" d="
	M84.217,82.605c0.525,2.7-1.254,5.337-3.954,5.862L21.547,99.873c-2.699,0.524-5.337-1.255-5.862-3.955L9.819,65.72
	c-0.525-2.7,1.256-5.337,3.954-5.862l58.716-11.406c2.7-0.524,5.338,1.256,5.862,3.955L84.217,82.605z"/>
<g>
	<path style="fill:none;stroke:#6B5045;stroke-width:2;stroke-linecap:round;stroke-linejoin:round;stroke-miterlimit:10;" d="
		M211.147,57.948c0.524,2.7-1.256,5.337-3.955,5.862l-58.716,11.405c-2.699,0.524-5.337-1.255-5.861-3.955l-5.866-30.198
		c-0.524-2.7,1.256-5.337,3.955-5.862l58.716-11.406c2.699-0.524,5.337,1.255,5.861,3.955L211.147,57.948z"/>
</g>
<g>
	<path style="fill:none;stroke:#6B5045;stroke-width:3;stroke-linecap:round;stroke-linejoin:round;stroke-miterlimit:10;" d="
		M121.061,39.017c2.699-0.524,5.337,1.255,5.861,3.955l5.867,30.198c0.524,2.7-1.256,5.337-3.955,5.862l-28.921,5.618
		c-2.699,0.524-5.337-1.255-5.861-3.955l-5.867-30.199c-0.524-2.7,1.256-5.337,3.955-5.862L121.061,39.017z"/>
</g>
<g>
	<path style="fill:none;stroke:#6B5045;stroke-width:3;stroke-linecap:round;stroke-linejoin:round;stroke-miterlimit:10;" d="
		M189.211,119.609c2.7-0.522,5.337,1.26,5.858,3.96l0.141,0.726c0.521,2.7-1.26,5.336-3.96,5.858L61.146,155.314
		c-2.7,0.522-5.336-1.26-5.858-3.96l-0.141-0.727c-0.522-2.7,1.26-5.336,3.96-5.858L189.211,119.609z"/>
</g>
<path style="fill:none;stroke:#6B5045;stroke-width:3;stroke-linecap:round;stroke-linejoin:round;stroke-miterlimit:10;" d="
	M115.721,40.054l0.402,2.07c0.491,2.529-1.176,5.001-3.706,5.493l-9.052,1.758c-2.531,0.492-5.002-1.176-5.493-3.706l-0.401-2.07
	L115.721,40.054z"/>
<path style="fill:none;stroke:#6B5045;stroke-width:3;stroke-linecap:round;stroke-linejoin:round;stroke-miterlimit:10;" d="
	M113.666,29.475l-0.3-1.542c-0.366-1.885-2.736-3.026-5.266-2.534l-9.052,1.758c-2.53,0.492-4.3,2.436-3.934,4.321l0.3,1.542
	L113.666,29.475z"/>
<path style="fill:none;stroke:#6B5045;stroke-width:3;stroke-linecap:round;stroke-linejoin:round;stroke-miterlimit:10;" d="
	M100.645,84.507l0.3,1.542c0.366,1.886,2.734,3.026,5.265,2.534l18.25-3.545c2.53-0.491,4.301-2.435,3.934-4.321l-0.3-1.542
	L100.645,84.507z"/>
<line style="fill:none;stroke:#6B5045;stroke-width:2;stroke-linecap:round;stroke-linejoin:round;stroke-miterlimit:10;" x1="12.753" y1="80.819" x2="81.285" y2="67.506"/>
<line style="fill:none;stroke:#6B5045;stroke-width:2;stroke-linecap:round;stroke-linejoin:round;stroke-miterlimit:10;" x1="22.573" y1="58.149" x2="30.347" y2="98.163"/>
<line style="fill:none;stroke:#6B5045;stroke-width:2;stroke-linecap:round;stroke-linejoin:round;stroke-miterlimit:10;" x1="36.279" y1="55.486" x2="44.053" y2="95.501"/>
<line style="fill:none;stroke:#6B5045;stroke-width:2;stroke-linecap:round;stroke-linejoin:round;stroke-miterlimit:10;" x1="49.983" y1="52.824" x2="57.757" y2="92.838"/>
<line style="fill:none;stroke:#6B5045;stroke-width:2;stroke-linecap:round;stroke-linejoin:round;stroke-miterlimit:10;" x1="63.691" y1="50.162" x2="71.464" y2="90.176"/>
<path style="fill:none;stroke:#6B5045;stroke-width:3;stroke-linecap:round;stroke-linejoin:round;stroke-miterlimit:10;" d="
	M211.147,57.948c0.525,2.7-1.255,5.337-3.954,5.862l-58.716,11.406c-2.7,0.524-5.338-1.255-5.862-3.955l-5.866-30.198
	c-0.524-2.699,1.255-5.337,3.955-5.861l58.716-11.406c2.699-0.524,5.337,1.255,5.862,3.955L211.147,57.948z"/>
<line style="fill:none;stroke:#6B5045;stroke-width:2;stroke-linecap:round;stroke-linejoin:round;stroke-miterlimit:10;" x1="139.683" y1="56.162" x2="208.215" y2="42.85"/>
<line style="fill:none;stroke:#6B5045;stroke-width:2;stroke-linecap:round;stroke-linejoin:round;stroke-miterlimit:10;" x1="149.504" y1="33.492" x2="157.276" y2="73.506"/>
<line style="fill:none;stroke:#6B5045;stroke-width:2;stroke-linecap:round;stroke-linejoin:round;stroke-miterlimit:10;" x1="163.209" y1="30.829" x2="170.982" y2="70.844"/>
<line style="fill:none;stroke:#6B5045;stroke-width:2;stroke-linecap:round;stroke-linejoin:round;stroke-miterlimit:10;" x1="176.915" y1="28.167" x2="184.688" y2="68.182"/>
<line style="fill:none;stroke:#6B5045;stroke-width:2;stroke-linecap:round;stroke-linejoin:round;stroke-miterlimit:10;" x1="190.619" y1="25.504" x2="198.393" y2="65.519"/>
<line style="fill:none;stroke:#6B5045;stroke-width:2;stroke-linecap:round;stroke-linejoin:round;stroke-miterlimit:10;" x1="107.892" y1="48.496" x2="114.37" y2="81.841"/>
<rect x="93.192" y="36.488" transform="matrix(0.9816 -0.1907 0.1907 0.9816 -5.5253 20.9488)" style="fill:none;stroke:#6B5045;stroke-width:3;stroke-linecap:round;stroke-linejoin:round;stroke-miterlimit:10;" width="25.779" height="5.388"/>
<polygon style="fill:none;stroke:#6B5045;stroke-width:3;stroke-linecap:round;stroke-linejoin:round;stroke-miterlimit:10;" points="
	113.666,29.475 95.415,33.021 92.915,38.996 118.221,34.08 "/>
<g>
	
		<line style="fill:none;stroke:#6B5045;stroke-width:2;stroke-linecap:round;stroke-linejoin:round;stroke-miterlimit:10;" x1="97.986" y1="32.521" x2="99.014" y2="37.811"/>
	
		<line style="fill:none;stroke:#6B5045;stroke-width:2;stroke-linecap:round;stroke-linejoin:round;stroke-miterlimit:10;" x1="102.355" y1="31.672" x2="103.383" y2="36.962"/>
	
		<line style="fill:none;stroke:#6B5045;stroke-width:2;stroke-linecap:round;stroke-linejoin:round;stroke-miterlimit:10;" x1="106.726" y1="30.823" x2="107.754" y2="36.113"/>
	
		<line style="fill:none;stroke:#6B5045;stroke-width:2;stroke-linecap:round;stroke-linejoin:round;stroke-miterlimit:10;" x1="111.096" y1="29.974" x2="112.123" y2="35.264"/>
</g>
<rect x="81.204" y="63.27" transform="matrix(0.9817 -0.1906 0.1906 0.9817 -11.1156 17.6544)" style="fill:none;stroke:#6B5045;stroke-width:3;stroke-linecap:round;stroke-linejoin:round;stroke-miterlimit:10;" width="10.019" height="6.676"/>
<rect x="129.775" y="53.835" transform="matrix(0.9817 -0.1907 0.1907 0.9817 -8.4286 26.749)" style="fill:none;stroke:#6B5045;stroke-width:3;stroke-linecap:round;stroke-linejoin:round;stroke-miterlimit:10;" width="10.018" height="6.676"/>
<rect x="112.889" y="86.44" transform="matrix(0.1905 0.9817 -0.9817 0.1905 181.9555 -41.1165)" style="fill:none;stroke:#6B5045;stroke-width:3;stroke-linecap:round;stroke-linejoin:round;stroke-miterlimit:10;" width="6.042" height="6.674"/>
<polygon style="fill:none;stroke:#6B5045;stroke-width:3;stroke-linecap:round;stroke-linejoin:round;stroke-miterlimit:10;" points="
	126.583,159.019 120.401,143.92 132.012,141.665 131.933,157.98 "/>
<circle style="fill:#6B5045;" cx="99.554" cy="62.047" r="1.472"/>
<path style="fill:#6B5045;" d="M49.456,119.156c-0.465-2.394-2.785-3.956-5.176-3.492c-2.393,0.465-3.96,2.783-3.495,5.177
	c0.465,2.393,2.786,3.956,5.179,3.492C48.354,123.868,49.921,121.549,49.456,119.156z"/>
<circle style="fill:#6B5045;" cx="229.157" cy="187.406" r="1.472"/>
<path style="fill:#6B5045;" d="M43.702,192.885c-0.271-1.397-1.626-2.308-3.021-2.037c-1.396,0.271-2.31,1.623-2.038,3.02
	c0.271,1.396,1.625,2.308,3.021,2.037C43.059,195.633,43.973,194.28,43.702,192.885z"/>
<circle style="fill:#6B5045;" cx="189.044" cy="9.676" r="1.472"/>
<circle style="fill:#6B5045;" cx="70.696" cy="26.819" r="2.854"/>
<circle style="fill:#6B5045;" cx="44.026" cy="40.424" r="1.472"/>
<circle style="fill:#6B5045;" cx="100.84" cy="68.666" r="1.472"/>
<path style="fill:none;stroke:#6B5045;stroke-width:3;stroke-linecap:round;stroke-linejoin:round;stroke-miterlimit:10;" d="
	M188.914,119.61L59.379,144.773c5.95-25.17,27.849-46.347,57.105-52.031C145.74,87.06,173.974,98.499,188.914,119.61z"/>
<circle style="fill:none;stroke:#6B5045;stroke-width:3;stroke-linecap:round;stroke-linejoin:round;stroke-miterlimit:10;" cx="130.88" cy="166.849" r="8.505"/>
<path style="fill:none;stroke:#6B5045;stroke-width:2;stroke-linecap:round;stroke-linejoin:round;stroke-miterlimit:10;" d="
	M122.315,194.476c-12.188-0.087-22.277-8.88-24.415-20.439"/>
<path style="fill:none;stroke:#6B5045;stroke-width:2;stroke-linecap:round;stroke-linejoin:round;stroke-miterlimit:10;" d="
	M122.213,208.939c-19.247-0.136-35.176-14.012-38.54-32.252"/>
<path style="fill:none;stroke:#6B5045;stroke-width:2;stroke-linecap:round;stroke-linejoin:round;stroke-miterlimit:10;" d="
	M72.553,187.28c-0.942-2.616-1.682-5.325-2.2-8.111"/>
<path style="fill:none;stroke:#6B5045;stroke-width:2;stroke-linecap:round;stroke-linejoin:round;stroke-miterlimit:10;" d="
	M89.08,210.485c-5.34-4.32-9.818-9.652-13.143-15.704"/>
<path style="fill:none;stroke:#6B5045;stroke-width:2;stroke-linecap:round;stroke-linejoin:round;stroke-miterlimit:10;" d="
	M122.118,222.287c-5.716-0.041-11.215-0.981-16.363-2.684"/>
<path style="fill:none;stroke:#6B5045;stroke-width:2;stroke-linecap:round;stroke-linejoin:round;stroke-miterlimit:10;" d="
	M167.073,159.658c2.54,11.919-3.873,23.668-14.701,28.244"/>
<path style="fill:none;stroke:#6B5045;stroke-width:2;stroke-linecap:round;stroke-linejoin:round;stroke-miterlimit:10;" d="
	M181.219,156.643c4.011,18.825-6.108,37.368-23.196,44.582"/>
<path style="fill:none;stroke:#6B5045;stroke-width:2;stroke-linecap:round;stroke-linejoin:round;stroke-miterlimit:10;" d="
	M189.864,188.665c-3.068,6.145-7.312,11.668-12.504,16.216"/>
<path style="fill:none;stroke:#6B5045;stroke-width:2;stroke-linecap:round;stroke-linejoin:round;stroke-miterlimit:10;" d="
	M194.273,153.862c1.191,5.59,1.456,11.162,0.903,16.555"/>
<g>
	<path style="fill:#6B5045;" d="M210.142,98.093c0.047-0.025,0.547,0.596,1.113,1.38l2.091,2.895
		c0.566,0.784,1.62,1.102,2.345,0.706c0.724-0.396,1.024-1.457,0.67-2.356l-1.313-3.321c-0.356-0.899-0.61-1.655-0.563-1.681
		c0.045-0.025,0.726-0.509,1.51-1.075l2.896-2.09c0.784-0.566,1.102-1.621,0.705-2.345c-0.396-0.724-1.456-1.024-2.355-0.669
		l-3.32,1.313c-0.9,0.355-1.675,0.667-1.72,0.692c-0.047,0.025-0.547-0.597-1.113-1.38l-2.089-2.896
		c-0.566-0.784-1.622-1.101-2.345-0.705c-0.725,0.396-1.025,1.456-0.67,2.355l1.312,3.321c0.355,0.899,0.609,1.656,0.563,1.681
		c-0.046,0.025-0.726,0.509-1.509,1.075l-2.896,2.09c-0.784,0.566-1.102,1.622-0.706,2.346c0.396,0.723,1.455,1.024,2.355,0.669
		l3.321-1.314C209.323,98.43,210.098,98.118,210.142,98.093z"/>
</g>
</svg>
