<?xml version="1.0" encoding="utf-8"?>
<!-- Generator: Adobe Illustrator 16.0.0, SVG Export Plug-In . SVG Version: 6.00 Build 0)  -->
<!DOCTYPE svg PUBLIC "-//W3C//DTD SVG 1.1//EN" "http://www.w3.org/Graphics/SVG/1.1/DTD/svg11.dtd">
<svg version="1.1" id="Layer_1" xmlns="http://www.w3.org/2000/svg" xmlns:xlink="http://www.w3.org/1999/xlink" x="0px" y="0px"
	 width="236.909px" height="236.91px" viewBox="0 0 236.909 236.91" style="enable-background:new 0 0 236.909 236.91;"
	 xml:space="preserve">
<g>
	<path style="fill:#59C7DA;" d="M93.959,117.385c-3.282,28.894,9.612,55.526,30.881,69.096l-22.039-97.314
		C98.226,97.573,95.126,107.109,93.959,117.385z"/>
	<path style="fill:#59C7DA;" d="M93.959,117.385c-3.282,28.894,9.612,55.526,30.881,69.096l-22.039-97.314
		C98.226,97.573,95.126,107.109,93.959,117.385z"/>
	<path style="fill:#52B6C3;" d="M141.334,56.364c-12.67,4.072-23.946,12.276-32.374,23.31
		c11.694,18.631,18.706,40.131,22.795,61.023L141.334,56.364z"/>
	<path style="fill:#59C7DA;" d="M131.755,140.697c-4.089-20.892-11.101-42.392-22.795-61.023c-2.268,2.969-4.333,6.138-6.159,9.493
		l22.039,97.314c0.53,0.338,1.062,0.676,1.603,0.998L131.755,140.697z"/>
</g>
<rect x="87.936" y="113.704" transform="matrix(0.9936 0.1129 -0.1129 0.9936 13.7941 -9.5198)" style="fill:#B0BBB7;" width="6.043" height="6.675"/>
<polygon style="fill:#B0BBB7;" points="160.209,127.652 143.951,129.015 145.286,117.264 160.824,122.238 "/>
<circle style="fill:#FFD44B;" cx="168.968" cy="125.905" r="8.505"/>
<g>
	<path style="fill:#DDF1F6;" d="M141.422,56.082c0.312-2.732,2.804-4.712,5.536-4.399l0.734,0.084
		c2.732,0.312,4.712,2.804,4.399,5.536l-15.065,131.655c-0.312,2.732-2.804,4.712-5.536,4.399l-0.734-0.084
		c-2.732-0.312-4.712-2.804-4.399-5.536L141.422,56.082z"/>
</g>
<path style="fill:#59C7DA;" d="M32.764,101.077l-1.561-0.177c-1.907-0.217-3.707,1.701-3.998,4.261l-1.04,9.162
	c-0.291,2.562,1.032,4.833,2.94,5.05l1.56,0.177L32.764,101.077z"/>
<rect x="26.856" y="108.532" transform="matrix(0.1128 -0.9936 0.9936 0.1128 -75.2547 138.1656)" style="fill:#59C7DA;" width="25.779" height="5.388"/>
<rect x="54.932" y="135.075" transform="matrix(0.1128 -0.9936 0.9936 0.1128 -84.3499 182.3591)" style="fill:#C2C1C3;" width="10.018" height="6.676"/>
<rect x="60.516" y="85.912" transform="matrix(0.1128 -0.9936 0.9936 0.1128 -30.5471 144.2902)" style="fill:#C2C1C3;" width="10.018" height="6.676"/>
<g>
	<g>
		<path style="fill:#DDF1F6;" d="M40.761,126.161c-0.311,2.732,1.671,5.222,4.403,5.532l15.607,1.772
			c2.732,0.311,3.792-1.354,2.354-3.698l-16.602-27.083c-1.438-2.344-2.867-2.027-3.178,0.706L40.761,126.161z"/>
	</g>
	<g>
		<path style="fill:#C9D5D4;" d="M58.094,93.448c-2.732-0.311-3.305,0.951-1.272,2.803l21.79,32.573
			c1.305,2.421,2.626,2.166,2.937-0.566l3.04-26.768c0.311-2.732-1.671-5.222-4.403-5.533L58.094,93.448z"/>
	</g>
	<path style="fill:#DDF1F6;" d="M53.126,92.883l-8.477-0.963l-0.738,6.501l21.828,35.608l14.959,1.699l0.285-2.504
		C74.8,112.632,63.174,100.175,53.126,92.883z"/>
</g>
<path style="fill:#FFD44B;" d="M43.472,102.293l2.095,0.238c2.561,0.291,4.418,2.624,4.127,5.185l-1.04,9.162
	c-0.291,2.562-2.625,4.417-5.185,4.127l-2.095-0.238L43.472,102.293z"/>
<path style="fill:#FFD44B;" d="M81.347,130.021l1.562,0.177c1.908,0.217,3.707-1.7,3.998-4.26l2.098-18.473
	c0.291-2.561-1.032-4.833-2.94-5.05l-1.561-0.177L81.347,130.021z"/>
<path style="fill:#5CBAE9;" d="M74.601,145.119c2.732,0.31,4.714,2.8,4.403,5.532l-6.75,59.431c-0.311,2.732-2.8,4.714-5.532,4.404
	l-30.566-3.472c-2.732-0.311-4.714-2.8-4.404-5.532l6.751-59.432c0.31-2.732,2.8-4.714,5.532-4.403L74.601,145.119z"/>
<path style="fill:#5CBAE9;" d="M89.192,16.643c2.732,0.31,4.715,2.8,4.404,5.532l-6.75,59.431c-0.311,2.732-2.801,4.714-5.533,4.404
	l-30.565-3.472c-2.732-0.311-4.715-2.8-4.404-5.532l6.751-59.432c0.31-2.732,2.8-4.714,5.532-4.403L89.192,16.643z"/>
<path style="fill:none;stroke:#6B5045;stroke-width:3;stroke-linecap:round;stroke-linejoin:round;stroke-miterlimit:10;" d="
	M74.601,145.119c2.732,0.31,4.714,2.8,4.403,5.532l-6.75,59.431c-0.311,2.732-2.8,4.714-5.532,4.404l-30.566-3.472
	c-2.732-0.311-4.714-2.8-4.404-5.532l6.751-59.432c0.31-2.732,2.8-4.714,5.532-4.403L74.601,145.119z"/>
<g>
	<path style="fill:none;stroke:#6B5045;stroke-width:2;stroke-linecap:round;stroke-linejoin:round;stroke-miterlimit:10;" d="
		M89.193,16.642c2.732,0.311,4.714,2.8,4.403,5.533l-6.75,59.431c-0.311,2.732-2.8,4.714-5.532,4.404l-30.567-3.472
		c-2.732-0.311-4.714-2.8-4.403-5.533l6.75-59.431c0.311-2.732,2.8-4.714,5.532-4.404L89.193,16.642z"/>
</g>
<g>
	<path style="fill:none;stroke:#6B5045;stroke-width:3;stroke-linecap:round;stroke-linejoin:round;stroke-miterlimit:10;" d="
		M44.085,96.889c0.311-2.732,2.8-4.714,5.532-4.404l30.567,3.472c2.732,0.311,4.714,2.8,4.403,5.533l-3.325,29.272
		c-0.311,2.732-2.8,4.714-5.532,4.404l-30.566-3.471c-2.732-0.311-4.714-2.8-4.403-5.533L44.085,96.889z"/>
</g>
<g>
	<path style="fill:none;stroke:#6B5045;stroke-width:3;stroke-linecap:round;stroke-linejoin:round;stroke-miterlimit:10;" d="
		M141.422,56.082c0.312-2.732,2.804-4.712,5.536-4.399l0.734,0.084c2.732,0.312,4.712,2.804,4.399,5.536l-15.065,131.655
		c-0.312,2.732-2.804,4.712-5.536,4.399l-0.734-0.084c-2.732-0.312-4.712-2.804-4.399-5.536L141.422,56.082z"/>
</g>
<path style="fill:none;stroke:#6B5045;stroke-width:3;stroke-linecap:round;stroke-linejoin:round;stroke-miterlimit:10;" d="
	M43.472,102.293l2.095,0.238c2.561,0.291,4.418,2.624,4.127,5.185l-1.04,9.162c-0.291,2.562-2.625,4.417-5.185,4.127l-2.095-0.238
	L43.472,102.293z"/>
<path style="fill:none;stroke:#6B5045;stroke-width:3;stroke-linecap:round;stroke-linejoin:round;stroke-miterlimit:10;" d="
	M32.764,101.077l-1.561-0.177c-1.907-0.217-3.707,1.701-3.998,4.261l-1.04,9.162c-0.291,2.562,1.032,4.833,2.94,5.05l1.56,0.177
	L32.764,101.077z"/>
<path style="fill:none;stroke:#6B5045;stroke-width:3;stroke-linecap:round;stroke-linejoin:round;stroke-miterlimit:10;" d="
	M81.347,130.021l1.562,0.177c1.908,0.217,3.707-1.7,3.998-4.26l2.098-18.473c0.291-2.561-1.032-4.833-2.94-5.05l-1.561-0.177
	L81.347,130.021z"/>
<line style="fill:none;stroke:#6B5045;stroke-width:2;stroke-linecap:round;stroke-linejoin:round;stroke-miterlimit:10;" x1="51.438" y1="212.75" x2="59.317" y2="143.383"/>
<line style="fill:none;stroke:#6B5045;stroke-width:2;stroke-linecap:round;stroke-linejoin:round;stroke-miterlimit:10;" x1="32.763" y1="196.576" x2="73.266" y2="201.176"/>
<line style="fill:none;stroke:#6B5045;stroke-width:2;stroke-linecap:round;stroke-linejoin:round;stroke-miterlimit:10;" x1="34.339" y1="182.703" x2="74.841" y2="187.303"/>
<line style="fill:none;stroke:#6B5045;stroke-width:2;stroke-linecap:round;stroke-linejoin:round;stroke-miterlimit:10;" x1="35.914" y1="168.831" x2="76.417" y2="173.432"/>
<line style="fill:none;stroke:#6B5045;stroke-width:2;stroke-linecap:round;stroke-linejoin:round;stroke-miterlimit:10;" x1="37.49" y1="154.958" x2="77.992" y2="159.558"/>
<path style="fill:none;stroke:#6B5045;stroke-width:3;stroke-linecap:round;stroke-linejoin:round;stroke-miterlimit:10;" d="
	M89.192,16.643c2.732,0.31,4.715,2.8,4.404,5.532l-6.75,59.431c-0.311,2.732-2.801,4.714-5.533,4.404l-30.565-3.472
	c-2.732-0.311-4.715-2.8-4.404-5.532l6.751-59.432c0.31-2.732,2.8-4.714,5.532-4.403L89.192,16.643z"/>
<line style="fill:none;stroke:#6B5045;stroke-width:2;stroke-linecap:round;stroke-linejoin:round;stroke-miterlimit:10;" x1="66.031" y1="84.274" x2="73.91" y2="14.906"/>
<line style="fill:none;stroke:#6B5045;stroke-width:2;stroke-linecap:round;stroke-linejoin:round;stroke-miterlimit:10;" x1="47.355" y1="68.099" x2="87.858" y2="72.699"/>
<line style="fill:none;stroke:#6B5045;stroke-width:2;stroke-linecap:round;stroke-linejoin:round;stroke-miterlimit:10;" x1="48.932" y1="54.227" x2="89.434" y2="58.827"/>
<line style="fill:none;stroke:#6B5045;stroke-width:2;stroke-linecap:round;stroke-linejoin:round;stroke-miterlimit:10;" x1="50.507" y1="40.354" x2="91.009" y2="44.954"/>
<line style="fill:none;stroke:#6B5045;stroke-width:2;stroke-linecap:round;stroke-linejoin:round;stroke-miterlimit:10;" x1="52.083" y1="26.482" x2="92.585" y2="31.082"/>
<line style="fill:none;stroke:#6B5045;stroke-width:2;stroke-linecap:round;stroke-linejoin:round;stroke-miterlimit:10;" x1="49.173" y1="112.295" x2="82.925" y2="116.129"/>
<rect x="26.856" y="108.532" transform="matrix(0.1128 -0.9936 0.9936 0.1128 -75.2547 138.1656)" style="fill:none;stroke:#6B5045;stroke-width:3;stroke-linecap:round;stroke-linejoin:round;stroke-miterlimit:10;" width="25.779" height="5.388"/>
<polygon style="fill:none;stroke:#6B5045;stroke-width:3;stroke-linecap:round;stroke-linejoin:round;stroke-miterlimit:10;" points="
	32.764,101.077 30.665,119.55 35.614,123.729 38.523,98.114 "/>
<g>
	
		<line style="fill:none;stroke:#6B5045;stroke-width:2;stroke-linecap:round;stroke-linejoin:round;stroke-miterlimit:10;" x1="30.961" y1="116.948" x2="36.315" y2="117.556"/>
	
		<line style="fill:none;stroke:#6B5045;stroke-width:2;stroke-linecap:round;stroke-linejoin:round;stroke-miterlimit:10;" x1="31.464" y1="112.525" x2="36.817" y2="113.133"/>
	
		<line style="fill:none;stroke:#6B5045;stroke-width:2;stroke-linecap:round;stroke-linejoin:round;stroke-miterlimit:10;" x1="31.966" y1="108.102" x2="37.32" y2="108.709"/>
	
		<line style="fill:none;stroke:#6B5045;stroke-width:2;stroke-linecap:round;stroke-linejoin:round;stroke-miterlimit:10;" x1="32.468" y1="103.679" x2="37.822" y2="104.287"/>
</g>
<rect x="54.932" y="135.075" transform="matrix(0.1128 -0.9936 0.9936 0.1128 -84.3499 182.3591)" style="fill:none;stroke:#6B5045;stroke-width:3;stroke-linecap:round;stroke-linejoin:round;stroke-miterlimit:10;" width="10.018" height="6.676"/>
<rect x="60.516" y="85.912" transform="matrix(0.1128 -0.9936 0.9936 0.1128 -30.5471 144.2902)" style="fill:none;stroke:#6B5045;stroke-width:3;stroke-linecap:round;stroke-linejoin:round;stroke-miterlimit:10;" width="10.018" height="6.676"/>
<rect x="87.936" y="113.704" transform="matrix(0.9936 0.1129 -0.1129 0.9936 13.7941 -9.5198)" style="fill:none;stroke:#6B5045;stroke-width:3;stroke-linecap:round;stroke-linejoin:round;stroke-miterlimit:10;" width="6.043" height="6.675"/>
<polygon style="fill:none;stroke:#6B5045;stroke-width:3;stroke-linecap:round;stroke-linejoin:round;stroke-miterlimit:10;" points="
	160.209,127.652 143.951,129.015 145.286,117.264 160.824,122.238 "/>
<circle style="fill:#6B5045;" cx="59.596" cy="124.317" r="1.472"/>
<path style="fill:#6B5045;" d="M99.027,189.251c-2.423-0.275-4.61,1.469-4.885,3.889c-0.275,2.422,1.465,4.613,3.888,4.888
	c2.422,0.275,4.611-1.469,4.886-3.891C103.19,191.718,101.449,189.526,99.027,189.251z"/>
<circle style="fill:#6B5045;" cx="218.085" cy="38.335" r="1.472"/>
<circle style="fill:#6B5045;" cx="167.335" cy="219.438" r="2.577"/>
<circle style="fill:#6B5045;" cx="36.511" cy="23.232" r="1.472"/>
<path style="fill:#6B5045;" d="M17.65,138.431c-1.566-0.178-2.979,0.95-3.157,2.513c-0.178,1.564,0.947,2.98,2.513,3.159
	c1.565,0.178,2.979-0.95,3.157-2.515C20.341,140.024,19.216,138.608,17.65,138.431z"/>
<circle style="fill:#6B5045;" cx="22.298" cy="170.791" r="1.472"/>
<circle style="fill:#6B5045;" cx="66.296" cy="125.078" r="1.472"/>
<path style="fill:none;stroke:#6B5045;stroke-width:3;stroke-linecap:round;stroke-linejoin:round;stroke-miterlimit:10;" d="
	M141.334,56.364l-14.892,131.114c-22.223-13.233-35.848-40.48-32.483-70.093C97.322,87.773,116.71,64.278,141.334,56.364z"/>
<circle style="fill:none;stroke:#6B5045;stroke-width:3;stroke-linecap:round;stroke-linejoin:round;stroke-miterlimit:10;" cx="168.968" cy="125.905" r="8.505"/>
<path style="fill:none;stroke:#6B5045;stroke-width:2;stroke-linecap:round;stroke-linejoin:round;stroke-miterlimit:10;" d="
	M192.748,142.37c-3.742,11.598-15.159,18.583-26.827,17.15"/>
<path style="fill:none;stroke:#6B5045;stroke-width:2;stroke-linecap:round;stroke-linejoin:round;stroke-miterlimit:10;" d="
	M206.514,146.81c-5.909,18.318-23.928,29.345-42.337,27.078"/>
<path style="fill:none;stroke:#6B5045;stroke-width:2;stroke-linecap:round;stroke-linejoin:round;stroke-miterlimit:10;" d="
	M170.942,187.675c-2.778,0.114-5.584,0.005-8.398-0.336"/>
<path style="fill:none;stroke:#6B5045;stroke-width:2;stroke-linecap:round;stroke-linejoin:round;stroke-miterlimit:10;" d="
	M198.04,178.879c-5.725,3.795-12.155,6.466-18.926,7.82"/>
<path style="fill:none;stroke:#6B5045;stroke-width:2;stroke-linecap:round;stroke-linejoin:round;stroke-miterlimit:10;" d="
	M219.218,150.908c-1.756,5.439-4.304,10.403-7.475,14.802"/>
<path style="fill:none;stroke:#6B5045;stroke-width:2;stroke-linecap:round;stroke-linejoin:round;stroke-miterlimit:10;" d="
	M172.976,89.223c12.132,1.156,21.413,10.801,22.526,22.503"/>
<path style="fill:none;stroke:#6B5045;stroke-width:2;stroke-linecap:round;stroke-linejoin:round;stroke-miterlimit:10;" d="
	M174.348,74.824c19.161,1.827,33.809,17.047,35.559,35.513"/>
<path style="fill:none;stroke:#6B5045;stroke-width:2;stroke-linecap:round;stroke-linejoin:round;stroke-miterlimit:10;" d="
	M207.487,76.193c4.94,4.771,8.936,10.478,11.713,16.795"/>
<path style="fill:none;stroke:#6B5045;stroke-width:2;stroke-linecap:round;stroke-linejoin:round;stroke-miterlimit:10;" d="
	M175.614,61.537c5.69,0.542,11.084,1.962,16.062,4.109"/>
<g>
	<path style="fill:#6B5045;" d="M127.185,29.655c-0.011-0.052,0.732-0.342,1.649-0.646l3.39-1.125
		c0.918-0.305,1.538-1.215,1.377-2.024c-0.16-0.81-1.081-1.415-2.045-1.347l-3.562,0.256c-0.965,0.069-1.763,0.084-1.772,0.032
		c-0.011-0.05-0.268-0.844-0.572-1.762l-1.124-3.39c-0.305-0.918-1.216-1.538-2.025-1.377s-1.415,1.081-1.346,2.045l0.256,3.562
		c0.068,0.965,0.133,1.797,0.144,1.848c0.011,0.052-0.732,0.342-1.65,0.647l-3.39,1.124c-0.918,0.305-1.537,1.216-1.377,2.025
		s1.081,1.414,2.046,1.346l3.562-0.255c0.964-0.069,1.763-0.084,1.772-0.032c0.01,0.05,0.268,0.844,0.572,1.761l1.124,3.39
		c0.305,0.918,1.216,1.537,2.024,1.377c0.81-0.161,1.415-1.081,1.347-2.046l-0.256-3.562
		C127.259,30.538,127.194,29.706,127.185,29.655z"/>
</g>
</svg>
