<?xml version="1.0" encoding="utf-8"?>
<!-- Generator: Adobe Illustrator 16.0.0, SVG Export Plug-In . SVG Version: 6.00 Build 0)  -->
<!DOCTYPE svg PUBLIC "-//W3C//DTD SVG 1.1//EN" "http://www.w3.org/Graphics/SVG/1.1/DTD/svg11.dtd">
<svg version="1.1" id="Layer_1" xmlns="http://www.w3.org/2000/svg" xmlns:xlink="http://www.w3.org/1999/xlink" x="0px" y="0px"
	 width="236.909px" height="236.91px" viewBox="0 0 236.909 236.91" style="enable-background:new 0 0 236.909 236.91;"
	 xml:space="preserve">
<g>
	<path style="fill:#59C7DA;" d="M116.882,140.687c28.192-7.128,48.56-28.593,53.748-53.282l-83.271,54.969
		C96.84,143.687,106.855,143.221,116.882,140.687z"/>
	<path style="fill:#59C7DA;" d="M116.882,140.687c28.192-7.128,48.56-28.593,53.748-53.282l-83.271,54.969
		C96.84,143.687,106.855,143.221,116.882,140.687z"/>
	<path style="fill:#52B6C3;" d="M43.067,117.899c8.281,10.417,19.938,18.072,33.235,22.063
		c13.305-17.519,30.946-31.667,49.051-42.868L43.067,117.899z"/>
	<path style="fill:#59C7DA;" d="M125.354,97.094c-18.104,11.201-35.746,25.349-49.051,42.868c3.579,1.073,7.273,1.887,11.057,2.412
		l83.271-54.969c0.13-0.616,0.258-1.232,0.368-1.851L125.354,97.094z"/>
</g>
<rect x="114.598" y="140.278" transform="matrix(-0.245 -0.9695 0.9695 -0.245 7.1985 292.8376)" style="fill:#B0BBB7;" width="6.043" height="6.675"/>
<polygon style="fill:#B0BBB7;" points="103.104,75.076 110.117,89.807 98.652,92.706 97.82,76.412 "/>
<circle style="fill:#FFD44B;" cx="98.378" cy="67.499" r="8.505"/>
<g>
	<path style="fill:#DDF1F6;" d="M42.771,117.916c-2.667,0.672-5.398-0.96-6.07-3.626l-0.182-0.718
		c-0.672-2.667,0.96-5.398,3.627-6.07l128.5-32.374c2.667-0.672,5.398,0.96,6.07,3.627l0.181,0.717
		c0.672,2.667-0.96,5.398-3.627,6.07L42.771,117.916z"/>
</g>
<path style="fill:#59C7DA;" d="M123.223,203.699l0.386,1.522c0.471,1.862,2.899,2.869,5.398,2.237l8.939-2.26
	c2.5-0.632,4.156-2.672,3.687-4.534l-0.384-1.522L123.223,203.699z"/>
<rect x="117.364" y="190.89" transform="matrix(-0.9695 0.2451 -0.2451 -0.9695 303.984 349.3366)" style="fill:#59C7DA;" width="25.78" height="5.388"/>
<rect x="143.555" y="161.755" transform="matrix(-0.9695 0.2451 -0.2451 -0.9695 333.0632 288.7328)" style="fill:#C2C1C3;" width="10.018" height="6.676"/>
<rect x="95.586" y="173.883" transform="matrix(-0.9695 0.2451 -0.2451 -0.9695 241.5621 324.3776)" style="fill:#C2C1C3;" width="10.018" height="6.677"/>
<g>
	<g>
		<path style="fill:#DDF1F6;" d="M143.87,187.363c2.666-0.674,4.296-3.407,3.622-6.073l-3.851-15.228
			c-0.674-2.667-2.605-3.07-4.292-0.898l-19.479,25.092c-1.687,2.172-0.885,3.398,1.781,2.724L143.87,187.363z"/>
	</g>
	<g>
		<path style="fill:#C9D5D4;" d="M107.144,182.691c0.674,2.667,2.057,2.757,3.072,0.201l22.786-31.884
			c1.805-2.075,1.1-3.221-1.566-2.547l-26.119,6.603c-2.666,0.674-4.296,3.407-3.622,6.073L107.144,182.691z"/>
	</g>
	<path style="fill:#DDF1F6;" d="M108.369,187.539l2.092,8.271l6.344-1.604l25.611-32.992l-3.689-14.597l-2.443,0.619
		C119.197,160.29,111.645,175.565,108.369,187.539z"/>
</g>
<path style="fill:#FFD44B;" d="M120.582,193.251l-0.518-2.044c-0.631-2.498,0.896-5.06,3.395-5.691l8.939-2.261
	c2.499-0.632,5.061,0.896,5.69,3.394l0.518,2.044L120.582,193.251z"/>
<path style="fill:#FFD44B;" d="M133.157,148.026l-0.386-1.522c-0.472-1.862-2.899-2.868-5.397-2.237l-18.025,4.557
	c-2.499,0.632-4.157,2.671-3.686,4.534l0.385,1.523L133.157,148.026z"/>
<path style="fill:#5CBAE9;" d="M149.663,149.01c-0.674-2.666,0.956-5.398,3.622-6.073l57.989-14.662
	c2.665-0.674,5.398,0.956,6.073,3.622l7.54,29.824c0.673,2.666-0.955,5.399-3.621,6.073l-57.988,14.661
	c-2.668,0.675-5.399-0.955-6.074-3.622L149.663,149.01z"/>
<path style="fill:#5CBAE9;" d="M24.306,180.705c-0.674-2.666,0.955-5.399,3.621-6.073l57.989-14.662
	c2.665-0.674,5.398,0.956,6.073,3.622l7.541,29.824c0.674,2.666-0.956,5.399-3.622,6.073l-57.989,14.662
	c-2.666,0.673-5.398-0.957-6.073-3.622L24.306,180.705z"/>
<path style="fill:none;stroke:#6B5045;stroke-width:3;stroke-linecap:round;stroke-linejoin:round;stroke-miterlimit:10;" d="
	M149.663,149.01c-0.674-2.666,0.956-5.398,3.622-6.073l57.989-14.662c2.665-0.674,5.398,0.956,6.073,3.622l7.54,29.824
	c0.673,2.666-0.955,5.399-3.621,6.073l-57.988,14.661c-2.668,0.675-5.399-0.955-6.074-3.622L149.663,149.01z"/>
<g>
	<path style="fill:none;stroke:#6B5045;stroke-width:2;stroke-linecap:round;stroke-linejoin:round;stroke-miterlimit:10;" d="
		M24.307,180.705c-0.674-2.667,0.956-5.399,3.622-6.073l57.987-14.662c2.666-0.674,5.399,0.956,6.073,3.622l7.541,29.824
		c0.674,2.667-0.956,5.399-3.622,6.073l-57.989,14.662c-2.666,0.674-5.399-0.956-6.073-3.622L24.307,180.705z"/>
</g>
<g>
	<path style="fill:none;stroke:#6B5045;stroke-width:3;stroke-linecap:round;stroke-linejoin:round;stroke-miterlimit:10;" d="
		M115.309,194.584c-2.666,0.674-5.399-0.956-6.073-3.622l-7.541-29.824c-0.674-2.667,0.956-5.399,3.622-6.073l28.562-7.222
		c2.666-0.674,5.399,0.956,6.073,3.622l7.54,29.825c0.674,2.667-0.956,5.399-3.622,6.073L115.309,194.584z"/>
</g>
<g>
	<path style="fill:none;stroke:#6B5045;stroke-width:3;stroke-linecap:round;stroke-linejoin:round;stroke-miterlimit:10;" d="
		M42.771,117.916c-2.667,0.672-5.398-0.96-6.07-3.626l-0.182-0.718c-0.672-2.667,0.96-5.398,3.627-6.07l128.5-32.374
		c2.667-0.672,5.398,0.96,6.07,3.627l0.181,0.717c0.672,2.667-0.96,5.398-3.627,6.07L42.771,117.916z"/>
</g>
<path style="fill:none;stroke:#6B5045;stroke-width:3;stroke-linecap:round;stroke-linejoin:round;stroke-miterlimit:10;" d="
	M120.582,193.251l-0.518-2.044c-0.631-2.498,0.896-5.06,3.395-5.691l8.939-2.261c2.499-0.632,5.061,0.896,5.69,3.394l0.518,2.044
	L120.582,193.251z"/>
<path style="fill:none;stroke:#6B5045;stroke-width:3;stroke-linecap:round;stroke-linejoin:round;stroke-miterlimit:10;" d="
	M123.223,203.699l0.386,1.522c0.471,1.862,2.899,2.869,5.398,2.237l8.939-2.26c2.5-0.632,4.156-2.672,3.687-4.534l-0.384-1.522
	L123.223,203.699z"/>
<path style="fill:none;stroke:#6B5045;stroke-width:3;stroke-linecap:round;stroke-linejoin:round;stroke-miterlimit:10;" d="
	M133.157,148.026l-0.386-1.522c-0.472-1.862-2.899-2.868-5.397-2.237l-18.025,4.557c-2.499,0.632-4.157,2.671-3.686,4.534
	l0.385,1.523L133.157,148.026z"/>
<line style="fill:none;stroke:#6B5045;stroke-width:2;stroke-linecap:round;stroke-linejoin:round;stroke-miterlimit:10;" x1="221.117" y1="146.809" x2="153.434" y2="163.921"/>
<line style="fill:none;stroke:#6B5045;stroke-width:2;stroke-linecap:round;stroke-linejoin:round;stroke-miterlimit:10;" x1="212.574" y1="169.992" x2="202.584" y2="130.472"/>
<line style="fill:none;stroke:#6B5045;stroke-width:2;stroke-linecap:round;stroke-linejoin:round;stroke-miterlimit:10;" x1="199.04" y1="173.414" x2="189.048" y2="133.895"/>
<line style="fill:none;stroke:#6B5045;stroke-width:2;stroke-linecap:round;stroke-linejoin:round;stroke-miterlimit:10;" x1="185.504" y1="176.837" x2="175.513" y2="137.317"/>
<line style="fill:none;stroke:#6B5045;stroke-width:2;stroke-linecap:round;stroke-linejoin:round;stroke-miterlimit:10;" x1="171.968" y1="180.259" x2="161.976" y2="140.74"/>
<path style="fill:none;stroke:#6B5045;stroke-width:3;stroke-linecap:round;stroke-linejoin:round;stroke-miterlimit:10;" d="
	M24.306,180.705c-0.674-2.666,0.955-5.399,3.621-6.073l57.989-14.662c2.665-0.674,5.398,0.956,6.073,3.622l7.541,29.824
	c0.674,2.666-0.956,5.399-3.622,6.073l-57.989,14.662c-2.666,0.673-5.398-0.957-6.073-3.622L24.306,180.705z"/>
<line style="fill:none;stroke:#6B5045;stroke-width:2;stroke-linecap:round;stroke-linejoin:round;stroke-miterlimit:10;" x1="95.759" y1="178.503" x2="28.075" y2="195.616"/>
<line style="fill:none;stroke:#6B5045;stroke-width:2;stroke-linecap:round;stroke-linejoin:round;stroke-miterlimit:10;" x1="87.218" y1="201.687" x2="77.225" y2="162.167"/>
<line style="fill:none;stroke:#6B5045;stroke-width:2;stroke-linecap:round;stroke-linejoin:round;stroke-miterlimit:10;" x1="73.682" y1="205.109" x2="63.689" y2="165.59"/>
<line style="fill:none;stroke:#6B5045;stroke-width:2;stroke-linecap:round;stroke-linejoin:round;stroke-miterlimit:10;" x1="60.146" y1="208.531" x2="50.154" y2="169.012"/>
<line style="fill:none;stroke:#6B5045;stroke-width:2;stroke-linecap:round;stroke-linejoin:round;stroke-miterlimit:10;" x1="46.61" y1="211.953" x2="36.618" y2="172.434"/>
<line style="fill:none;stroke:#6B5045;stroke-width:2;stroke-linecap:round;stroke-linejoin:round;stroke-miterlimit:10;" x1="127.928" y1="184.386" x2="119.601" y2="151.454"/>
<rect x="117.364" y="190.89" transform="matrix(-0.9695 0.2451 -0.2451 -0.9695 303.984 349.3366)" style="fill:none;stroke:#6B5045;stroke-width:3;stroke-linecap:round;stroke-linejoin:round;stroke-miterlimit:10;" width="25.78" height="5.388"/>
<polygon style="fill:none;stroke:#6B5045;stroke-width:3;stroke-linecap:round;stroke-linejoin:round;stroke-miterlimit:10;" points="
	123.223,203.699 141.249,199.142 143.411,193.037 118.418,199.355 "/>
<g>
	
		<line style="fill:none;stroke:#6B5045;stroke-width:2;stroke-linecap:round;stroke-linejoin:round;stroke-miterlimit:10;" x1="138.708" y1="199.784" x2="137.388" y2="194.56"/>
	
		<line style="fill:none;stroke:#6B5045;stroke-width:2;stroke-linecap:round;stroke-linejoin:round;stroke-miterlimit:10;" x1="134.393" y1="200.875" x2="133.072" y2="195.651"/>
	
		<line style="fill:none;stroke:#6B5045;stroke-width:2;stroke-linecap:round;stroke-linejoin:round;stroke-miterlimit:10;" x1="130.077" y1="201.966" x2="128.756" y2="196.742"/>
	
		<line style="fill:none;stroke:#6B5045;stroke-width:2;stroke-linecap:round;stroke-linejoin:round;stroke-miterlimit:10;" x1="125.761" y1="203.057" x2="124.44" y2="197.833"/>
</g>
<rect x="143.555" y="161.755" transform="matrix(-0.9695 0.2451 -0.2451 -0.9695 333.0632 288.7328)" style="fill:none;stroke:#6B5045;stroke-width:3;stroke-linecap:round;stroke-linejoin:round;stroke-miterlimit:10;" width="10.018" height="6.676"/>
<rect x="95.586" y="173.883" transform="matrix(-0.9695 0.2451 -0.2451 -0.9695 241.5621 324.3776)" style="fill:none;stroke:#6B5045;stroke-width:3;stroke-linecap:round;stroke-linejoin:round;stroke-miterlimit:10;" width="10.018" height="6.677"/>
<rect x="114.598" y="140.278" transform="matrix(-0.245 -0.9695 0.9695 -0.245 7.1985 292.8376)" style="fill:none;stroke:#6B5045;stroke-width:3;stroke-linecap:round;stroke-linejoin:round;stroke-miterlimit:10;" width="6.043" height="6.675"/>
<polygon style="fill:none;stroke:#6B5045;stroke-width:3;stroke-linecap:round;stroke-linejoin:round;stroke-miterlimit:10;" points="
	103.104,75.076 110.117,89.807 98.652,92.706 97.82,76.412 "/>
<circle style="fill:#6B5045;" cx="135.496" cy="170.391" r="1.472"/>
<path style="fill:#6B5045;" d="M182.334,110.577c0.597,2.365,3.002,3.795,5.362,3.198c2.363-0.597,3.799-2.999,3.2-5.363
	c-0.597-2.364-3.002-3.795-5.365-3.198C183.171,105.812,181.735,108.214,182.334,110.577z"/>
<circle style="fill:#6B5045;" cx="-0.893" cy="52.452" r="1.472"/>
<circle style="fill:#6B5045;" cx="186.467" cy="36.012" r="2.577"/>
<circle style="fill:#6B5045;" cx="49.066" cy="227.67" r="1.472"/>
<path style="fill:#6B5045;" d="M163.507,204.655c0.386,1.528,1.939,2.452,3.466,2.066c1.526-0.386,2.454-1.938,2.068-3.466
	c-0.387-1.527-1.941-2.452-3.467-2.066S163.121,203.128,163.507,204.655z"/>
<circle style="fill:#6B5045;" cx="192.144" cy="188.884" r="1.472"/>
<circle style="fill:#6B5045;" cx="133.845" cy="163.854" r="1.472"/>
<path style="fill:none;stroke:#6B5045;stroke-width:3;stroke-linecap:round;stroke-linejoin:round;stroke-miterlimit:10;" d="
	M43.067,117.899l127.931-32.346c-4.538,25.462-25.223,47.828-54.116,55.133C87.989,147.991,59.162,138.144,43.067,117.899z"/>
<circle style="fill:none;stroke:#6B5045;stroke-width:3;stroke-linecap:round;stroke-linejoin:round;stroke-miterlimit:10;" cx="98.378" cy="67.499" r="8.505"/>
<path style="fill:none;stroke:#6B5045;stroke-width:2;stroke-linecap:round;stroke-linejoin:round;stroke-miterlimit:10;" d="
	M105.389,39.438c12.173-0.593,22.739,7.624,25.517,19.046"/>
<path style="fill:none;stroke:#6B5045;stroke-width:2;stroke-linecap:round;stroke-linejoin:round;stroke-miterlimit:10;" d="
	M104.685,24.991c19.226-0.937,35.902,12.029,40.278,30.054"/>
<path style="fill:none;stroke:#6B5045;stroke-width:2;stroke-linecap:round;stroke-linejoin:round;stroke-miterlimit:10;" d="
	M155.476,43.848c1.086,2.56,1.975,5.223,2.649,7.977"/>
<path style="fill:none;stroke:#6B5045;stroke-width:2;stroke-linecap:round;stroke-linejoin:round;stroke-miterlimit:10;" d="
	M137.681,21.6c5.571,4.016,10.34,9.09,13.997,14.947"/>
<path style="fill:none;stroke:#6B5045;stroke-width:2;stroke-linecap:round;stroke-linejoin:round;stroke-miterlimit:10;" d="
	M104.035,11.658c5.709-0.278,11.252,0.354,16.487,1.768"/>
<path style="fill:none;stroke:#6B5045;stroke-width:2;stroke-linecap:round;stroke-linejoin:round;stroke-miterlimit:10;" d="
	M62.642,76.696c-3.201-11.759,2.549-23.848,13.104-29.02"/>
<path style="fill:none;stroke:#6B5045;stroke-width:2;stroke-linecap:round;stroke-linejoin:round;stroke-miterlimit:10;" d="
	M48.686,80.494c-5.054-18.571,4.017-37.649,20.676-45.804"/>
<path style="fill:none;stroke:#6B5045;stroke-width:2;stroke-linecap:round;stroke-linejoin:round;stroke-miterlimit:10;" d="
	M38.27,49.004c2.721-6.307,6.649-12.058,11.579-16.888"/>
<path style="fill:none;stroke:#6B5045;stroke-width:2;stroke-linecap:round;stroke-linejoin:round;stroke-miterlimit:10;" d="
	M35.806,83.999c-1.501-5.515-2.074-11.063-1.824-16.479"/>
<g>
	<path style="fill:#6B5045;" d="M23.071,140.565c-0.045,0.028-0.579-0.564-1.188-1.316l-2.249-2.774
		c-0.609-0.751-1.679-1.01-2.38-0.574c-0.7,0.436-0.943,1.511-0.538,2.389l1.496,3.244c0.406,0.878,0.701,1.619,0.656,1.646
		c-0.044,0.027-0.695,0.548-1.446,1.158l-2.775,2.248c-0.752,0.609-1.01,1.681-0.573,2.381c0.436,0.701,1.511,0.942,2.389,0.537
		l3.243-1.497c0.879-0.405,1.634-0.76,1.678-0.788c0.046-0.028,0.578,0.565,1.188,1.316l2.248,2.775
		c0.609,0.751,1.681,1.01,2.381,0.574c0.701-0.437,0.941-1.511,0.537-2.39l-1.496-3.243c-0.405-0.878-0.7-1.619-0.655-1.646
		c0.043-0.028,0.695-0.548,1.445-1.157l2.775-2.249c0.751-0.609,1.01-1.68,0.573-2.38c-0.437-0.701-1.51-0.942-2.389-0.538
		l-3.243,1.497C23.87,140.184,23.115,140.538,23.071,140.565z"/>
</g>
</svg>
