<?xml version="1.0" encoding="utf-8"?>
<!-- Generator: Adobe Illustrator 16.0.0, SVG Export Plug-In . SVG Version: 6.00 Build 0)  -->
<!DOCTYPE svg PUBLIC "-//W3C//DTD SVG 1.1//EN" "http://www.w3.org/Graphics/SVG/1.1/DTD/svg11.dtd">
<svg version="1.1" id="Layer_1" xmlns="http://www.w3.org/2000/svg" xmlns:xlink="http://www.w3.org/1999/xlink" x="0px" y="0px"
	 width="236.909px" height="236.91px" viewBox="0 0 236.909 236.91" style="enable-background:new 0 0 236.909 236.91;"
	 xml:space="preserve">
<g>
	<path style="fill:#59C7DA;" d="M122.284,91.166c-27.946-8.035-56.352,0.258-73.265,18.978l99.623-5.572
		C141.112,98.664,132.224,94.023,122.284,91.166z"/>
	<path style="fill:#59C7DA;" d="M122.284,91.166c-27.946-8.035-56.352,0.258-73.265,18.978l99.623-5.572
		C141.112,98.664,132.224,94.023,122.284,91.166z"/>
	<path style="fill:#52B6C3;" d="M174.59,148.017c-1.91-13.17-8.129-25.652-17.609-35.796c-20.314,8.438-42.68,11.782-63.961,12.345
		L174.59,148.017z"/>
	<path style="fill:#59C7DA;" d="M93.02,124.566c21.281-0.563,43.646-3.907,63.961-12.345c-2.551-2.729-5.333-5.292-8.338-7.65
		l-99.623,5.572c-0.421,0.467-0.843,0.935-1.249,1.414L93.02,124.566z"/>
</g>
<rect x="120.1" y="84.925" transform="matrix(-0.2764 0.9611 -0.9611 -0.2764 241.9731 -5.671)" style="fill:#B0BBB7;" width="6.042" height="6.675"/>
<polygon style="fill:#B0BBB7;" points="101.158,154.791 102.515,138.533 113.88,141.8 106.395,156.297 "/>
<circle style="fill:#FFD44B;" cx="101.426" cy="163.718" r="8.504"/>
<g>
	<path style="fill:#DDF1F6;" d="M174.855,148.15c2.642,0.762,4.181,3.548,3.418,6.19l-0.205,0.711
		c-0.762,2.642-3.547,4.181-6.189,3.418L44.553,121.75c-2.642-0.762-4.181-3.548-3.418-6.19l0.204-0.711
		c0.763-2.642,3.548-4.181,6.19-3.418L174.855,148.15z"/>
</g>
<path style="fill:#59C7DA;" d="M148.529,33.529l0.434-1.509c0.53-1.845-1.062-3.938-3.538-4.65l-8.862-2.547
	c-2.478-0.712-4.938,0.215-5.468,2.061l-0.434,1.509L148.529,33.529z"/>
<rect x="124.472" y="36.035" transform="matrix(0.9611 0.2763 -0.2763 0.9611 16.0468 -36.4434)" style="fill:#59C7DA;" width="25.78" height="5.388"/>
<rect x="102.189" y="50.789" transform="matrix(0.9611 0.2763 -0.2763 0.9611 19.1256 -27.5086)" style="fill:#C2C1C3;" width="10.018" height="6.676"/>
<rect x="149.742" y="64.46" transform="matrix(0.9611 0.2763 -0.2763 0.9611 24.7531 -40.1138)" style="fill:#C2C1C3;" width="10.018" height="6.676"/>
<g>
	<g>
		<path style="fill:#DDF1F6;" d="M122.465,37.249c-2.644-0.76-5.428,0.781-6.188,3.424l-4.339,15.096
			c-0.76,2.643,0.705,3.964,3.256,2.937l29.464-11.874c2.551-1.028,2.476-2.49-0.168-3.25L122.465,37.249z"/>
	</g>
	<g>
		<path style="fill:#C9D5D4;" d="M151.846,59.774c0.76-2.643-0.389-3.417-2.553-1.72l-35.739,16.078
			c-2.604,0.884-2.572,2.229,0.071,2.989l25.891,7.444c2.644,0.76,5.428-0.781,6.188-3.424L151.846,59.774z"/>
	</g>
	<path style="fill:#DDF1F6;" d="M153.228,54.969l2.356-8.199l-6.288-1.808l-38.739,15.611l-4.16,14.47l2.423,0.697
		C130.153,73.062,144.368,63.666,153.228,54.969z"/>
</g>
<path style="fill:#FFD44B;" d="M145.551,43.886l-0.582,2.026c-0.712,2.477-3.321,3.92-5.798,3.208l-8.861-2.548
	c-2.479-0.712-3.921-3.321-3.209-5.797l0.583-2.026L145.551,43.886z"/>
<path style="fill:#FFD44B;" d="M111.918,76.631l-0.434,1.51c-0.531,1.846,1.061,3.938,3.537,4.65l17.868,5.137
	c2.478,0.712,4.938-0.215,5.468-2.062l0.435-1.509L111.918,76.631z"/>
<path style="fill:#5CBAE9;" d="M98.15,67.47c-0.76,2.643-3.543,4.184-6.187,3.424L34.479,54.368
	c-2.643-0.76-4.184-3.543-3.424-6.187l8.5-29.565c0.76-2.643,3.544-4.184,6.187-3.424l57.485,16.526
	c2.643,0.76,4.184,3.544,3.424,6.187L98.15,67.47z"/>
<path style="fill:#5CBAE9;" d="M222.42,103.196c-0.76,2.643-3.544,4.184-6.187,3.424l-57.485-16.526
	c-2.643-0.76-4.184-3.543-3.424-6.187l8.5-29.565c0.76-2.643,3.544-4.184,6.187-3.424l57.485,16.526
	c2.643,0.76,4.184,3.544,3.424,6.187L222.42,103.196z"/>
<path style="fill:none;stroke:#6B5045;stroke-width:3;stroke-linecap:round;stroke-linejoin:round;stroke-miterlimit:10;" d="
	M98.15,67.47c-0.76,2.643-3.543,4.184-6.187,3.424L34.479,54.368c-2.643-0.76-4.184-3.543-3.424-6.187l8.5-29.565
	c0.76-2.643,3.544-4.184,6.187-3.424l57.485,16.526c2.643,0.76,4.184,3.544,3.424,6.187L98.15,67.47z"/>
<g>
	<path style="fill:none;stroke:#6B5045;stroke-width:2;stroke-linecap:round;stroke-linejoin:round;stroke-miterlimit:10;" d="
		M222.42,103.197c-0.76,2.643-3.544,4.184-6.188,3.424l-57.484-16.527c-2.644-0.76-4.184-3.544-3.424-6.187l8.499-29.565
		c0.76-2.643,3.544-4.184,6.188-3.424l57.484,16.527c2.644,0.76,4.184,3.544,3.424,6.187L222.42,103.197z"/>
</g>
<g>
	<path style="fill:none;stroke:#6B5045;stroke-width:3;stroke-linecap:round;stroke-linejoin:round;stroke-miterlimit:10;" d="
		M150.778,45.389c2.644,0.76,4.184,3.544,3.424,6.187l-8.499,29.566c-0.76,2.643-3.544,4.184-6.188,3.424l-28.313-8.141
		c-2.644-0.76-4.184-3.544-3.424-6.187l8.499-29.565c0.76-2.643,3.544-4.184,6.188-3.424L150.778,45.389z"/>
</g>
<g>
	<path style="fill:none;stroke:#6B5045;stroke-width:3;stroke-linecap:round;stroke-linejoin:round;stroke-miterlimit:10;" d="
		M174.855,148.15c2.642,0.762,4.181,3.548,3.418,6.19l-0.205,0.711c-0.762,2.642-3.547,4.181-6.189,3.418L44.553,121.75
		c-2.642-0.762-4.181-3.548-3.418-6.19l0.204-0.711c0.763-2.642,3.548-4.181,6.19-3.418L174.855,148.15z"/>
</g>
<path style="fill:none;stroke:#6B5045;stroke-width:3;stroke-linecap:round;stroke-linejoin:round;stroke-miterlimit:10;" d="
	M145.551,43.886l-0.582,2.026c-0.712,2.477-3.321,3.92-5.798,3.208l-8.861-2.548c-2.479-0.712-3.921-3.321-3.209-5.797l0.583-2.026
	L145.551,43.886z"/>
<path style="fill:none;stroke:#6B5045;stroke-width:3;stroke-linecap:round;stroke-linejoin:round;stroke-miterlimit:10;" d="
	M148.529,33.529l0.434-1.509c0.53-1.845-1.062-3.938-3.538-4.65l-8.862-2.547c-2.478-0.712-4.938,0.215-5.468,2.061l-0.434,1.509
	L148.529,33.529z"/>
<path style="fill:none;stroke:#6B5045;stroke-width:3;stroke-linecap:round;stroke-linejoin:round;stroke-miterlimit:10;" d="
	M111.918,76.631l-0.434,1.51c-0.531,1.846,1.061,3.938,3.537,4.65l17.868,5.137c2.478,0.712,4.938-0.215,5.468-2.062l0.435-1.509
	L111.918,76.631z"/>
<line style="fill:none;stroke:#6B5045;stroke-width:2;stroke-linecap:round;stroke-linejoin:round;stroke-miterlimit:10;" x1="35.305" y1="33.399" x2="102.4" y2="52.688"/>
<line style="fill:none;stroke:#6B5045;stroke-width:2;stroke-linecap:round;stroke-linejoin:round;stroke-miterlimit:10;" x1="54.356" y1="17.669" x2="43.094" y2="56.845"/>
<line style="fill:none;stroke:#6B5045;stroke-width:2;stroke-linecap:round;stroke-linejoin:round;stroke-miterlimit:10;" x1="67.775" y1="21.526" x2="56.512" y2="60.702"/>
<line style="fill:none;stroke:#6B5045;stroke-width:2;stroke-linecap:round;stroke-linejoin:round;stroke-miterlimit:10;" x1="81.192" y1="25.384" x2="69.93" y2="64.56"/>
<line style="fill:none;stroke:#6B5045;stroke-width:2;stroke-linecap:round;stroke-linejoin:round;stroke-miterlimit:10;" x1="94.611" y1="29.242" x2="83.349" y2="68.417"/>
<path style="fill:none;stroke:#6B5045;stroke-width:3;stroke-linecap:round;stroke-linejoin:round;stroke-miterlimit:10;" d="
	M222.42,103.196c-0.76,2.643-3.544,4.184-6.187,3.424l-57.485-16.526c-2.643-0.76-4.184-3.543-3.424-6.187l8.5-29.565
	c0.76-2.643,3.544-4.184,6.187-3.424l57.485,16.526c2.643,0.76,4.184,3.544,3.424,6.187L222.42,103.196z"/>
<line style="fill:none;stroke:#6B5045;stroke-width:2;stroke-linecap:round;stroke-linejoin:round;stroke-miterlimit:10;" x1="159.574" y1="69.125" x2="226.67" y2="88.415"/>
<line style="fill:none;stroke:#6B5045;stroke-width:2;stroke-linecap:round;stroke-linejoin:round;stroke-miterlimit:10;" x1="178.626" y1="53.395" x2="167.363" y2="92.571"/>
<line style="fill:none;stroke:#6B5045;stroke-width:2;stroke-linecap:round;stroke-linejoin:round;stroke-miterlimit:10;" x1="192.044" y1="57.252" x2="180.781" y2="96.428"/>
<line style="fill:none;stroke:#6B5045;stroke-width:2;stroke-linecap:round;stroke-linejoin:round;stroke-miterlimit:10;" x1="205.463" y1="61.11" x2="194.2" y2="100.286"/>
<line style="fill:none;stroke:#6B5045;stroke-width:2;stroke-linecap:round;stroke-linejoin:round;stroke-miterlimit:10;" x1="218.88" y1="64.967" x2="207.617" y2="104.144"/>
<line style="fill:none;stroke:#6B5045;stroke-width:2;stroke-linecap:round;stroke-linejoin:round;stroke-miterlimit:10;" x1="134.741" y1="47.848" x2="125.355" y2="80.494"/>
<rect x="124.472" y="36.035" transform="matrix(0.9611 0.2763 -0.2763 0.9611 16.0468 -36.4434)" style="fill:none;stroke:#6B5045;stroke-width:3;stroke-linecap:round;stroke-linejoin:round;stroke-miterlimit:10;" width="25.78" height="5.388"/>
<polygon style="fill:none;stroke:#6B5045;stroke-width:3;stroke-linecap:round;stroke-linejoin:round;stroke-miterlimit:10;" points="
	148.529,33.529 130.661,28.392 125.718,32.578 150.494,39.701 "/>
<g>
	
		<line style="fill:none;stroke:#6B5045;stroke-width:2;stroke-linecap:round;stroke-linejoin:round;stroke-miterlimit:10;" x1="133.178" y1="29.116" x2="131.689" y2="34.294"/>
	
		<line style="fill:none;stroke:#6B5045;stroke-width:2;stroke-linecap:round;stroke-linejoin:round;stroke-miterlimit:10;" x1="137.456" y1="30.346" x2="135.967" y2="35.524"/>
	
		<line style="fill:none;stroke:#6B5045;stroke-width:2;stroke-linecap:round;stroke-linejoin:round;stroke-miterlimit:10;" x1="141.734" y1="31.576" x2="140.246" y2="36.754"/>
	
		<line style="fill:none;stroke:#6B5045;stroke-width:2;stroke-linecap:round;stroke-linejoin:round;stroke-miterlimit:10;" x1="146.013" y1="32.806" x2="144.523" y2="37.984"/>
</g>
<rect x="102.189" y="50.789" transform="matrix(0.9611 0.2763 -0.2763 0.9611 19.1256 -27.5086)" style="fill:none;stroke:#6B5045;stroke-width:3;stroke-linecap:round;stroke-linejoin:round;stroke-miterlimit:10;" width="10.018" height="6.676"/>
<rect x="149.742" y="64.46" transform="matrix(0.9611 0.2763 -0.2763 0.9611 24.7531 -40.1138)" style="fill:none;stroke:#6B5045;stroke-width:3;stroke-linecap:round;stroke-linejoin:round;stroke-miterlimit:10;" width="10.018" height="6.676"/>
<rect x="120.1" y="84.925" transform="matrix(-0.2764 0.9611 -0.9611 -0.2764 241.9731 -5.671)" style="fill:none;stroke:#6B5045;stroke-width:3;stroke-linecap:round;stroke-linejoin:round;stroke-miterlimit:10;" width="6.042" height="6.675"/>
<polygon style="fill:none;stroke:#6B5045;stroke-width:3;stroke-linecap:round;stroke-linejoin:round;stroke-miterlimit:10;" points="
	101.158,154.791 102.515,138.533 113.88,141.8 106.395,156.297 "/>
<circle style="fill:#6B5045;" cx="121.156" cy="56.129" r="1.472"/>
<path style="fill:#6B5045;" d="M50.574,84.229c0.674-2.344-0.684-4.791-3.023-5.463c-2.342-0.674-4.792,0.678-5.466,3.022
	c-0.673,2.342,0.684,4.79,3.026,5.464C47.451,87.925,49.901,86.572,50.574,84.229z"/>
<circle style="fill:#6B5045;" cx="179.623" cy="226.696" r="1.472"/>
<circle style="fill:#6B5045;" cx="9.463" cy="146.575" r="2.576"/>
<circle style="fill:#6B5045;" cx="224.671" cy="50.152" r="1.472"/>
<path style="fill:#6B5045;" d="M114.204,12.422c0.436-1.515-0.442-3.096-1.954-3.531c-1.513-0.435-3.096,0.438-3.531,1.954
	c-0.436,1.514,0.441,3.096,1.955,3.53C112.186,14.811,113.769,13.936,114.204,12.422z"/>
<circle style="fill:#6B5045;" cx="81.521" cy="11.631" r="1.472"/>
<circle style="fill:#6B5045;" cx="119.292" cy="62.609" r="1.472"/>
<path style="fill:none;stroke:#6B5045;stroke-width:3;stroke-linecap:round;stroke-linejoin:round;stroke-miterlimit:10;" d="
	M174.59,148.017L47.771,111.558c16.739-19.716,45.87-28.626,74.514-20.392C150.927,99.4,170.876,122.421,174.59,148.017z"/>
<circle style="fill:none;stroke:#6B5045;stroke-width:3;stroke-linecap:round;stroke-linejoin:round;stroke-miterlimit:10;" cx="101.426" cy="163.718" r="8.504"/>
<path style="fill:none;stroke:#6B5045;stroke-width:2;stroke-linecap:round;stroke-linejoin:round;stroke-miterlimit:10;" d="
	M81.241,184.434c-10.815-5.616-15.808-18.035-12.457-29.302"/>
<path style="fill:none;stroke:#6B5045;stroke-width:2;stroke-linecap:round;stroke-linejoin:round;stroke-miterlimit:10;" d="
	M74.576,197.271c-17.082-8.87-24.964-28.469-19.671-46.245"/>
<path style="fill:none;stroke:#6B5045;stroke-width:2;stroke-linecap:round;stroke-linejoin:round;stroke-miterlimit:10;" d="
	M40.187,155.408c0.349-2.759,0.922-5.508,1.726-8.226"/>
<path style="fill:none;stroke:#6B5045;stroke-width:2;stroke-linecap:round;stroke-linejoin:round;stroke-miterlimit:10;" d="
	M44.36,183.589c-2.792-6.275-4.358-13.06-4.569-19.961"/>
<path style="fill:none;stroke:#6B5045;stroke-width:2;stroke-linecap:round;stroke-linejoin:round;stroke-miterlimit:10;" d="
	M68.425,209.118c-5.072-2.635-9.544-5.972-13.354-9.829"/>
<path style="fill:none;stroke:#6B5045;stroke-width:2;stroke-linecap:round;stroke-linejoin:round;stroke-miterlimit:10;" d="
	M136.934,173.763c-3.154,11.771-14.207,19.321-25.932,18.476"/>
<path style="fill:none;stroke:#6B5045;stroke-width:2;stroke-linecap:round;stroke-linejoin:round;stroke-miterlimit:10;" d="
	M150.904,177.507c-4.983,18.591-22.425,30.508-40.925,29.167"/>
<path style="fill:none;stroke:#6B5045;stroke-width:2;stroke-linecap:round;stroke-linejoin:round;stroke-miterlimit:10;" d="
	M144.051,209.959c-5.525,4.079-11.816,7.07-18.508,8.761"/>
<path style="fill:none;stroke:#6B5045;stroke-width:2;stroke-linecap:round;stroke-linejoin:round;stroke-miterlimit:10;" d="
	M163.797,180.963c-1.479,5.521-3.776,10.604-6.72,15.157"/>
<g>
	<path style="fill:#6B5045;" d="M203.278,138.499c0.053-0.001,0.216,0.779,0.364,1.735l0.546,3.529
		c0.147,0.956,0.942,1.718,1.768,1.694s1.575-0.831,1.668-1.793l0.339-3.555c0.092-0.963,0.209-1.752,0.263-1.753
		c0.051-0.001,0.877-0.123,1.833-0.271l3.529-0.546c0.956-0.147,1.718-0.943,1.694-1.768c-0.024-0.825-0.831-1.574-1.794-1.667
		l-3.556-0.339c-0.963-0.092-1.794-0.167-1.846-0.165c-0.053,0.001-0.216-0.78-0.364-1.735l-0.545-3.529
		c-0.147-0.956-0.943-1.718-1.769-1.694s-1.574,0.831-1.667,1.793l-0.34,3.555c-0.092,0.963-0.209,1.752-0.263,1.753
		c-0.051,0.002-0.877,0.124-1.832,0.272l-3.529,0.545c-0.956,0.148-1.718,0.943-1.694,1.769c0.024,0.825,0.831,1.574,1.794,1.667
		l3.556,0.339C202.396,138.426,203.227,138.5,203.278,138.499z"/>
</g>
</svg>
