<?xml version="1.0" encoding="utf-8"?>
<!-- Generator: Adobe Illustrator 16.0.0, SVG Export Plug-In . SVG Version: 6.00 Build 0)  -->
<!DOCTYPE svg PUBLIC "-//W3C//DTD SVG 1.1//EN" "http://www.w3.org/Graphics/SVG/1.1/DTD/svg11.dtd">
<svg version="1.1" id="Layer_1" xmlns="http://www.w3.org/2000/svg" xmlns:xlink="http://www.w3.org/1999/xlink" x="0px" y="0px"
	 width="529.504px" height="293.255px" viewBox="0 -227.077 529.504 293.255"
	 style="enable-background:new 0 -227.077 529.504 293.255;" xml:space="preserve">
<path style="opacity:0.5;fill:#F4EEB8;" d="M153.92-218.375c-68.124,0-126.878,40.077-154,97.934V23.695
	c4.855,10.354,10.717,20.141,17.47,29.228h273.06c21.026-28.292,33.471-63.34,33.471-101.298
	C323.92-142.263,247.808-218.375,153.92-218.375z"/>
<path style="fill:#D2C8C6;" d="M489.219,52.813H23.528c-0.243,0.84-0.514,1.675-0.807,2.504c11.746,1.101,24.896,2.639,37.255,4.765
	c54.407,9.354,136.178,2.582,146.587,2.225c71.989-2.473,179.679,7.665,225.989,2.263C478.863,59.167,524.548,52.813,489.219,52.813
	z"/>
<circle style="fill:#6B5045;" cx="12.289" cy="36.127" r="2.403"/>
<circle style="fill:#6B5045;" cx="26.525" cy="41.477" r="1.906"/>
<circle style="fill:#6B5045;" cx="334.287" cy="30.428" r="1.649"/>
<circle style="fill:#6B5045;" cx="502.573" cy="8.006" r="1.306"/>
<circle style="fill:#6B5045;" cx="522.579" cy="35.702" r="1.306"/>
<line style="fill:none;stroke:#6D4C42;stroke-width:4;stroke-linecap:round;stroke-miterlimit:10;" x1="9.885" y1="53.813" x2="523.886" y2="53.813"/>
<g>
	<path style="fill:#A2A4A3;" d="M395.385,28.212c6.575,0.07,19.271,22.794,42.317,12.11l-4.428-5.05
		c-1.91-2.178-5.77-4.542-8.575-5.256l-28.624-7.277c-2.807-0.714-6.404,0.682-7.995,3.102l-17.737,26.971h0.285
		C376.906,44.672,390.28,28.158,395.385,28.212z"/>
	<path style="fill:none;stroke:#6D4C42;stroke-width:3;stroke-linecap:round;stroke-miterlimit:10;" d="M437.702,40.323l-4.428-5.05
		c-1.91-2.178-5.77-4.542-8.575-5.256l-28.624-7.277c-2.807-0.714-6.404,0.682-7.995,3.102l-17.737,26.971h0.285"/>
	<path style="fill:#908480;" d="M437.702,40.323c-23.047,10.684-35.742-12.041-42.317-12.11
		c-5.105-0.054-18.479,16.46-24.757,24.601h78.029L437.702,40.323z"/>
</g>
<g>
	<path style="fill:#8BC443;" d="M432.626-17.112c-1.628,0-3.239,1.519-3.578,5.734l-5.169,64.191h3.431
		c6.506-24.125,7.463-55.48,7.559-68.678C434.224-16.742,433.429-17.112,432.626-17.112z"/>
	<path style="fill:#87AA4C;" d="M436.205-11.378c-0.173-2.141-0.674-3.583-1.337-4.487c-0.096,13.198-1.053,44.553-7.559,68.678
		h14.065L436.205-11.378z"/>
</g>
<g>
	<path style="fill:#8BC443;" d="M458.941,1.854c-1.63,0-3.239,1.107-3.578,4.179l-5.17,46.78h3.432
		c6.506-17.581,7.464-40.432,7.558-50.051C460.539,2.124,459.741,1.854,458.941,1.854z"/>
	<path style="fill:#87AA4C;" d="M462.52,6.032c-0.173-1.561-0.674-2.612-1.338-3.271c-0.094,9.619-1.052,32.47-7.558,50.051h14.063
		L462.52,6.032z"/>
</g>
<g>
	<path style="fill:none;stroke:#6D4C42;stroke-width:3;stroke-linecap:round;stroke-miterlimit:10;" d="M434.868-15.865
		c-0.645-0.876-1.439-1.247-2.242-1.247c-1.628,0-3.239,1.519-3.578,5.734l-5.169,64.191h3.431"/>
	<path style="fill:none;stroke:#6D4C42;stroke-width:3;stroke-linecap:round;stroke-miterlimit:10;" d="M427.31,52.813h14.065
		l-5.17-64.191c-0.173-2.141-0.674-3.583-1.337-4.487"/>
</g>
<g>
	<path style="fill:#8BC443;" d="M43.531,52.575c1.56-14.963,1.909-28.78,1.965-36.455c-0.645-0.876-1.439-1.247-2.242-1.247
		c-1.628,0-3.239,1.519-3.578,5.734l-2.574,31.968H43.531z"/>
	<path style="fill:#87AA4C;" d="M49.407,52.575l-2.575-31.968c-0.173-2.141-0.674-3.583-1.337-4.487
		c-0.056,7.675-0.405,21.492-1.965,36.455H49.407z"/>
</g>
<g>
	<path style="fill:none;stroke:#6D4C42;stroke-width:3;stroke-linecap:round;stroke-miterlimit:10;" d="M45.495,16.12
		c-0.645-0.876-1.439-1.247-2.242-1.247c-1.628,0-3.239,1.519-3.578,5.734l-2.574,31.968"/>
	<path style="fill:none;stroke:#6D4C42;stroke-width:3;stroke-linecap:round;stroke-miterlimit:10;" d="M49.407,52.575
		l-2.575-31.968c-0.173-2.141-0.674-3.583-1.337-4.487"/>
</g>
<g>
	<path style="fill:#8BC443;" d="M53.268,52.575c1.388-9.669,1.699-18.599,1.749-23.558c-0.574-0.566-1.281-0.806-1.995-0.806
		c-1.449,0-2.883,0.981-3.185,3.705l-2.291,20.658H53.268z"/>
	<path style="fill:#87AA4C;" d="M58.498,52.575l-2.292-20.658c-0.154-1.383-0.6-2.315-1.189-2.899
		c-0.05,4.959-0.36,13.889-1.749,23.558H58.498z"/>
</g>
<g>
	<path style="fill:none;stroke:#6D4C42;stroke-width:3;stroke-linecap:round;stroke-miterlimit:10;" d="M55.016,29.018
		c-0.574-0.566-1.281-0.806-1.995-0.806c-1.449,0-2.883,0.981-3.185,3.705l-2.291,20.658"/>
	<path style="fill:none;stroke:#6D4C42;stroke-width:3;stroke-linecap:round;stroke-miterlimit:10;" d="M58.498,52.575
		l-2.292-20.658c-0.154-1.383-0.6-2.315-1.189-2.899"/>
</g>
<g>
	<path style="fill:none;stroke:#6D4C42;stroke-width:3;stroke-linecap:round;stroke-miterlimit:10;" d="M461.182,2.762
		c-0.643-0.638-1.44-0.908-2.241-0.908c-1.63,0-3.239,1.107-3.578,4.179l-5.17,46.78h3.432"/>
	<path style="fill:none;stroke:#6D4C42;stroke-width:3;stroke-linecap:round;stroke-miterlimit:10;" d="M453.624,52.813h14.063
		l-5.168-46.78c-0.173-1.561-0.674-2.612-1.338-3.271"/>
</g>
<g>
	<path style="fill:#8BC443;" d="M514.146,36.214c-3.857-3.09-8.749-4.941-14.076-4.941c-12.449,0-22.54,10.091-22.54,22.54h12.256
		C499.017,50.639,508.916,45.259,514.146,36.214z"/>
	<path style="fill:#87AA4C;" d="M514.146,36.214c-5.229,9.045-15.129,14.425-24.36,17.599h32.825
		C522.611,46.692,519.303,40.345,514.146,36.214z"/>
</g>
<g>
	<path style="fill:#8BC443;" d="M399.303,53.923c5.391-2.179,10.771-5.565,13.799-10.8c-2.562-2.053-5.812-3.282-9.351-3.282
		c-7.968,0-14.464,6.23-14.927,14.082H399.303z"/>
	<path style="fill:#87AA4C;" d="M418.672,53.923c-0.258-4.364-2.362-8.231-5.57-10.8c-3.027,5.234-8.408,8.621-13.799,10.8H418.672z
		"/>
</g>
<g>
	<path style="fill:#8BC443;" d="M393.99,45.07c-1.697-1.359-3.849-2.175-6.193-2.175c-5.478,0-9.919,4.441-9.919,9.918l12.209-0.004
		C394.148,51.413,391.688,49.049,393.99,45.07z"/>
</g>
<g>
	<path style="fill:none;stroke:#6D4C42;stroke-width:3;stroke-linecap:round;stroke-miterlimit:10;" d="M514.146,36.214
		c-3.857-3.09-8.749-4.941-14.076-4.941c-12.449,0-22.54,10.091-22.54,22.54h12.256"/>
	<path style="fill:none;stroke:#6D4C42;stroke-width:3;stroke-linecap:round;stroke-miterlimit:10;" d="M489.785,53.813h32.825
		c0-7.121-3.308-13.468-8.465-17.599"/>
</g>
<g>
	<g>
		<path style="fill:none;stroke:#6D4C42;stroke-width:3;stroke-linecap:round;stroke-miterlimit:10;" d="M413.102,42.123
			c-2.562-2.053-5.812-3.282-9.351-3.282c-8.269,0-14.972,6.703-14.972,14.972h8.142"/>
		<path style="fill:none;stroke:#6D4C42;stroke-width:3;stroke-linecap:round;stroke-miterlimit:10;" d="M396.921,53.813h21.803
			c0-4.73-2.196-8.946-5.622-11.689"/>
	</g>
	<g>
		<path style="fill:none;stroke:#6D4C42;stroke-width:3;stroke-linecap:round;stroke-miterlimit:10;" d="M377.872,53.809
			c0-5.47,4.45-9.91,9.92-9.91c1.44,0,2.81,0.311,4.04,0.86"/>
	</g>
</g>
<g>
	<path style="fill:#A19EA3;" d="M458.733,53.813h27.59l-29.414-14.361c-2.602-1.271-6.794-1.148-9.316,0.274l-24.993,14.087h6.738
		C439.079,46.068,456.213,35.411,458.733,53.813z"/>
	<path style="fill:#8D867F;" d="M429.337,53.813h29.396C456.213,35.411,439.079,46.068,429.337,53.813z"/>
	<path style="fill:none;stroke:#6D4C42;stroke-width:3;stroke-linecap:round;stroke-miterlimit:10;" d="M486.323,53.813
		l-29.414-14.361c-2.602-1.271-6.794-1.148-9.316,0.274l-24.993,14.087"/>
</g>
</svg>
